<svg width="22" height="37" viewBox="0 0 22 37" fill="none" xmlns="http://www.w3.org/2000/svg">
<path d="M19.8051 20.5854C20.8782 15.122 21.366 9.65854 21.366 4.19512C21.366 1.85366 19.5124 0 17.2685 0H5.56115C3.21969 0 1.26847 1.85366 1.26847 4.19512C1.26847 9.65854 1.85384 15.122 2.82945 20.5854C1.56115 21.0732 0.683105 22.3415 0.683105 23.7073V25.3659C0.683105 26.6341 1.65872 27.6098 2.92701 27.6098H10.2441V31.7073C7.12213 31.9024 4.1953 32.878 1.9514 34.439C1.75628 34.6341 1.56115 34.8293 1.56115 35.122C1.56115 35.4146 1.56115 35.7073 1.75628 35.9024C2.04896 36.3902 2.73189 36.4878 3.21969 36.1951C5.17091 34.8293 7.7075 33.9512 10.3416 33.7561V35.3171C10.3416 35.9024 10.8294 36.2927 11.3173 36.2927C11.8051 36.2927 12.2929 35.8049 12.2929 35.3171V33.7561C14.927 33.9512 17.4636 34.7317 19.4148 36.1951C19.6099 36.2927 19.8051 36.3902 20.0002 36.3902C20.2929 36.3902 20.6831 36.1951 20.8782 36C21.0733 35.8049 21.0734 35.5122 21.0734 35.2195C21.0734 34.9268 20.8782 34.7317 20.6831 34.5366C18.3416 32.8781 15.4148 31.9024 12.3904 31.8049V27.7073H19.7075C20.9758 27.7073 21.9514 26.7317 21.9514 25.4634V23.8049C21.9514 22.3415 21.0733 21.0732 19.8051 20.5854ZM4.1953 22.3415H18.5368C19.3173 22.3415 19.9026 22.9268 19.9026 23.7073V25.3659C19.9026 25.4634 19.8051 25.561 19.7075 25.561H3.02457C2.92701 25.561 2.82945 25.4634 2.82945 25.3659V23.7073C2.82945 22.9268 3.41481 22.3415 4.1953 22.3415ZM17.8538 20.2927H4.87823C3.90262 15.0244 3.31725 9.56098 3.31725 4.19512C3.31725 3.02439 4.29286 2.04878 5.46359 2.04878H17.1709C18.3416 2.04878 19.3172 3.02439 19.3172 4.19512C19.3172 9.56098 18.8294 14.9268 17.8538 20.2927Z" fill="#2B2929"/>
</svg>
