<svg width="8" height="8" viewBox="0 0 8 8" fill="none" xmlns="http://www.w3.org/2000/svg">
<path d="M7.70994 0.29C7.61698 0.196272 7.50637 0.121877 7.38452 0.0711088C7.26266 0.0203401 7.13195 -0.00579834 6.99994 -0.00579834C6.86793 -0.00579834 6.73722 0.0203401 6.61536 0.0711088C6.4935 0.121877 6.3829 0.196272 6.28994 0.29L3.99994 2.59L1.70994 0.29C1.52164 0.101696 1.26624 -0.00409174 0.999939 -0.00409174C0.733637 -0.00409173 0.478243 0.101696 0.289939 0.29C0.101635 0.478304 -0.00415277 0.733698 -0.00415277 1C-0.00415278 1.2663 0.101635 1.5217 0.289939 1.71L2.58994 4L0.289939 6.29C0.196211 6.38296 0.121816 6.49356 0.0710478 6.61542C0.0202791 6.73728 -0.00585938 6.86799 -0.00585938 7C-0.00585938 7.13201 0.0202791 7.26272 0.0710478 7.38458C0.121816 7.50644 0.196211 7.61704 0.289939 7.71C0.382902 7.80373 0.493503 7.87812 0.615362 7.92889C0.737221 7.97966 0.867927 8.0058 0.999939 8.0058C1.13195 8.0058 1.26266 7.97966 1.38452 7.92889C1.50638 7.87812 1.61698 7.80373 1.70994 7.71L3.99994 5.41L6.28994 7.71C6.3829 7.80373 6.4935 7.87812 6.61536 7.92889C6.73722 7.97966 6.86793 8.0058 6.99994 8.0058C7.13195 8.0058 7.26266 7.97966 7.38452 7.92889C7.50637 7.87812 7.61698 7.80373 7.70994 7.71C7.80367 7.61704 7.87806 7.50644 7.92883 7.38458C7.9796 7.26272 8.00574 7.13201 8.00574 7C8.00574 6.86799 7.9796 6.73728 7.92883 6.61542C7.87806 6.49356 7.80367 6.38296 7.70994 6.29L5.40994 4L7.70994 1.71C7.80367 1.61704 7.87806 1.50644 7.92883 1.38458C7.9796 1.26272 8.00574 1.13201 8.00574 1C8.00574 0.867988 7.9796 0.737282 7.92883 0.615423C7.87806 0.493564 7.80367 0.382963 7.70994 0.29Z" fill="#2B2929"/>
</svg>
